Coordinates
version=1
nRows=13
nColumns=36
inDegrees=yes

Units are S.I. units (second, meters, Newtons, ...)
If the header above contains a line with 'inDegrees', this indicates whether rotational values are in degrees (yes) or radians (no).

endheader
time	pelvis_tilt	pelvis_list	pelvis_rotation	pelvis_tx	pelvis_ty	pelvis_tz	hip_flexion_r	hip_adduction_r	hip_rotation_r	knee_angle_r	knee_angle_r_beta	ankle_angle_r	subtalar_angle_r	mtp_angle_r	hip_flexion_l	hip_adduction_l	hip_rotation_l	knee_angle_l	knee_angle_l_beta	ankle_angle_l	subtalar_angle_l	mtp_angle_l	lumbar_extension	lumbar_bending	lumbar_rotation	arm_flex_r	arm_add_r	arm_rot_r	elbow_flex_r	pro_sup_r	arm_flex_l	arm_add_l	arm_rot_l	elbow_flex_l	pro_sup_l
     13.35000000	     -4.82301443	      2.07034907	     10.32780555	      0.56575552	      0.93169777	     -0.16951113	     -0.29124218	     -5.64088948	    -10.15610126	      0.34076124	      0.00594741	      5.71192495	     -6.91930350	     -7.49999987	      1.61914287	     -2.12690482	     -3.55852573	      0.16642693	      0.00290470	      2.09344625	      3.53159291	     -7.49999987	      2.74872305	     -0.38566852	     -0.13432765	     47.39349060	      7.19102568	     49.39691687	    137.37898469	     73.87004471	     -0.72378904	    -11.00183228	     25.02216378	     37.43442397	     47.26125314
     13.36666670	     -4.84966483	      2.06353377	     10.22542566	      0.56571864	      0.92938840	     -0.16983558	     -0.23635198	     -5.65698139	    -10.29002455	      0.33904228	      0.00591740	      5.85260431	     -6.56949659	     -7.49999987	      1.59819220	     -2.11464147	     -3.54507180	      0.16535018	      0.00288591	      2.14370440	      3.24875729	     -7.49999987	      2.79405864	     -0.31196440	     -0.20458668	     47.45925848	      7.39925135	     49.61121399	    137.49408263	     72.68074165	     -0.51368942	    -11.19416891	     26.08170566	     37.32722296	     48.09653517
     13.38333330	     -4.88953026	      2.05661358	     10.06235037	      0.56592713	      0.92938929	     -0.16959210	     -0.12412114	     -5.65903575	    -10.12244362	      0.33874295	      0.00591218	      5.89470687	     -6.76882277	     -7.49999987	      1.62341162	     -2.10350841	     -3.86301418	      0.16352425	      0.00285404	      2.22626837	      3.54646913	     -7.49999987	      2.84936329	     -0.24698642	     -0.08028320	     47.38436743	      7.40396755	     49.55403777	    137.72355023	     73.12602673	     -0.11543346	    -11.52906377	     27.98014408	     37.21691071	     47.09759893
     13.40000000	     -4.89049673	      2.06201286	     10.04462237	      0.56567397	      0.92961311	     -0.16973387	     -0.14340197	     -5.66096620	    -10.31072905	      0.33515766	      0.00584960	      6.11793927	     -6.42284260	     -7.49999987	      1.62349292	     -2.09443201	     -3.77043542	      0.16217259	      0.00283045	      2.26259434	      3.47934199	     -7.49999987	      2.81145801	     -0.23589848	     -0.31414975	     47.73760039	      7.42843814	     49.55225690	    137.73251550	     73.27544661	     -0.22379725	    -11.69454831	     28.49782632	     37.50112882	     46.55216568
     13.41666670	     -4.86650763	      2.07276769	      9.96424793	      0.56587278	      0.92958995	     -0.16946911	     -0.18980030	     -5.64838775	    -10.18603180	      0.33616361	      0.00586716	      6.08374587	     -6.49298796	     -7.49999987	      1.59354896	     -2.10520589	     -3.78503336	      0.16080405	      0.00280656	      2.32500434	      3.52311145	     -7.49999987	      2.75317184	     -0.23967819	     -0.45469813	     47.98151526	      7.44296764	     49.64643875	    137.86489924	     72.77669600	     -0.33390442	    -11.80454701	     28.48205462	     37.77813221	     46.86845077
     13.43333330	     -4.93082057	      2.04873490	      9.84899420	      0.56593490	      0.92736823	     -0.16984300	     -0.11681889	     -5.63434835	    -10.14110279	      0.34262699	      0.00597997	      6.21446820	     -6.43344177	     -7.49999987	      1.63896861	     -2.11825767	     -3.90234377	      0.15947362	      0.00278334	      2.50830895	      3.64754133	     -7.49999987	      2.91169121	     -0.16628731	     -0.39094261	     48.22587700	      7.44963532	     49.52985386	    137.89678474	     71.97733620	     -0.35897628	    -11.69076731	     28.62482901	     37.75410152	     47.36340274
     13.45000000	     -4.96201416	      2.04411531	      9.80611804	      0.56608817	      0.92748262	     -0.16975511	     -0.13565132	     -5.61230428	    -10.06908101	      0.34414672	      0.00600649	      6.18856545	     -6.43856782	     -7.49999987	      1.68174285	     -2.11984556	     -3.84746353	      0.15872482	      0.00277027	      2.63422952	      3.58713926	     -7.49999987	      2.97082217	     -0.16647521	     -0.55306747	     48.26163127	      7.48880864	     49.55406778	    137.97271335	     71.73320608	     -0.47091019	    -11.74793113	     28.68041243	     38.27965654	     47.55712345
     13.46666670	     -5.01812594	      2.03515799	      9.70685842	      0.56572576	      0.93010551	     -0.16953510	     -0.07309547	     -5.59692043	     -9.94383465	      0.34674021	      0.00605176	      6.03601943	     -6.47143097	     -7.49999987	      1.75688273	     -2.11098031	     -3.85988287	      0.15721363	      0.00274390	      2.59048647	      3.45271077	     -7.49999987	      3.05239059	     -0.13478036	     -0.59471791	     48.11712457	      7.47568962	     49.69644574	    137.98633829	     71.16553315	     -0.71662750	    -11.59307240	     28.11986981	     38.60135891	     48.03308587
     13.48333330	     -5.05581177	      2.00923412	      9.58377540	      0.56198920	      0.92962735	     -0.16624253	      0.03595984	     -5.51295725	     -9.88535059	      0.34403355	      0.00600452	      6.14850390	     -6.09141301	     -7.49999987	      1.82866642	     -2.16920158	     -3.94047738	      0.15555517	      0.00271495	      2.56941783	      3.44985142	     -7.49999987	      3.06309214	     -0.17513593	     -0.44049656	     48.17461978	      7.47785689	     49.54058754	    137.76202842	     70.40196168	     -0.70480431	    -11.41820888	     27.34507641	     38.77223159	     48.73537310
     13.50000000	     -5.18600927	      1.98866123	      9.56499200	      0.56163364	      0.93188023	     -0.16612229	      0.26001283	     -5.47423531	     -9.82532181	      0.34192502	      0.00596772	      6.12339293	     -6.07352218	     -7.49999987	      2.01174787	     -2.20465482	     -3.98580184	      0.15427540	      0.00269261	      2.51631681	      3.57278437	     -7.49999987	      3.20561294	     -0.19708945	     -0.06160506	     48.02815031	      7.31423512	     49.16054308	    137.63273703	     70.53838658	     -0.24711836	    -11.09427812	     27.29336458	     37.89626952	     48.76451242
     13.51666670	     -5.17711352	      1.97506253	      9.62210229	      0.56163876	      0.93166106	     -0.16615201	      0.32243071	     -5.43276212	     -9.85945122	      0.33454016	      0.00583883	      6.24371476	     -5.91449546	     -7.49999987	      2.04571496	     -2.24626828	     -3.83282218	      0.15518860	      0.00270855	      2.44360877	      3.39099000	     -7.49999987	      3.06131170	     -0.22276157	      0.03560185	     48.00306889	      7.18453074	     49.03899948	    137.63043079	     70.14720060	     -0.31363870	    -11.06499249	     26.76718499	     38.41989717	     49.14782215
     13.53333330	     -5.13970761	      1.95955390	      9.63860479	      0.56149534	      0.93168198	     -0.16621497	      0.35322065	     -5.39362827	     -9.82155612	      0.33135168	      0.00578318	      6.21266741	     -5.96871941	     -7.49999987	      2.04427377	     -2.29418298	     -3.83390439	      0.15474740	      0.00270085	      2.28292983	      3.32317784	     -7.49999987	      2.89984570	     -0.23103483	      0.10931221	     48.16905404	      7.01945446	     48.77785922	    137.56934700	     69.78099003	     -0.24292499	    -10.93271978	     26.18293850	     38.57274335	     49.50346903
     13.55000000	     -5.14154600	      1.94706699	      9.61817637	      0.56172381	      0.93133113	     -0.16610650	      0.41981908	     -5.38175544	     -9.80686162	      0.32875320	      0.00573783	      6.35390083	     -5.94835479	     -7.49999987	      2.07090048	     -2.32229650	     -4.02077848	      0.15420465	      0.00269138	      2.29248324	      3.58640743	     -7.49999987	      2.89220946	     -0.16726964	      0.47758741	     48.23424500	      6.81046558	     48.42949729	    137.38366720	     69.83988793	     -0.09698333	    -10.65518941	     25.69615770	     38.26949127	     49.57490821
